<?xml version="1.0" encoding="utf-8"?>
<!-- Generator: Adobe Illustrator 19.2.1, SVG Export Plug-In . SVG Version: 6.00 Build 0)  -->
<svg version="1.1" xmlns="http://www.w3.org/2000/svg" xmlns:xlink="http://www.w3.org/1999/xlink" x="0px" y="0px"
	 viewBox="0 0 161.3 159" style="enable-background:new 0 0 161.3 159;" xml:space="preserve">
<style type="text/css">
	.st0{fill:#525352;}
	.st1{fill:#525352;stroke:#FFFFFF;stroke-miterlimit:10;}
	.st2{fill:#FFFFFF;}
</style>
<g id="Layer_1">
	<path class="st0" d="M159.2,80.2c0,2.9-4.3,5.5-4.7,8.3c-0.3,2.9,3.3,6.4,2.7,9.1c-0.6,2.8-5.5,4.4-6.4,7.1c-0.9,2.7,1.8,7,0.6,9.5
		c-1.2,2.6-6.3,3.1-7.8,5.5c-1.5,2.4,0.2,7.2-1.5,9.4c-1.8,2.2-6.8,1.6-8.8,3.6c-2,2-1.4,7.1-3.6,8.8c-2.2,1.8-7,0-9.4,1.5
		c-2.4,1.5-2.9,6.6-5.5,7.8c-2.6,1.2-6.8-1.5-9.5-0.6c-2.7,0.9-4.3,5.8-7.1,6.4c-2.8,0.6-6.3-3-9.1-2.7c-2.8,0.3-5.4,4.7-8.3,4.7
		c-2.9,0-5.5-4.3-8.3-4.7c-2.9-0.3-6.4,3.3-9.1,2.7c-2.8-0.6-4.4-5.5-7.1-6.4c-2.7-0.9-7,1.8-9.5,0.6c-2.6-1.2-3.1-6.3-5.5-7.8
		c-2.4-1.5-7.2,0.2-9.4-1.5c-2.2-1.8-1.6-6.8-3.6-8.8c-2-2-7.1-1.4-8.8-3.6c-1.8-2.2,0-7-1.5-9.4c-1.5-2.4-6.6-2.9-7.8-5.5
		c-1.2-2.6,1.5-6.8,0.6-9.5c-0.9-2.7-5.8-4.3-6.4-7.1c-0.6-2.8,3-6.3,2.7-9.1c-0.3-2.8-4.7-5.4-4.7-8.3c0-2.9,4.3-5.5,4.7-8.3
		c0.3-2.9-3.3-6.4-2.7-9.1c0.6-2.8,5.5-4.4,6.4-7.1c0.9-2.7-1.8-7-0.6-9.5c1.2-2.6,6.3-3.1,7.8-5.5c1.5-2.4-0.2-7.2,1.5-9.4
		c1.8-2.2,6.8-1.6,8.8-3.6c2-2,1.4-7.1,3.6-8.8c2.2-1.8,7,0,9.4-1.5c2.4-1.5,2.9-6.6,5.5-7.8c2.6-1.2,6.8,1.5,9.5,0.6
		c2.7-0.9,4.3-5.8,7.1-6.4c2.8-0.6,6.3,3,9.1,2.7c2.8-0.3,5.4-4.7,8.3-4.7c2.9,0,5.5,4.3,8.3,4.7c2.9,0.3,6.4-3.3,9.1-2.7
		c2.8,0.6,4.4,5.5,7.1,6.4c2.7,0.9,7-1.8,9.5-0.6c2.6,1.2,3.1,6.3,5.5,7.8c2.4,1.5,7.2-0.2,9.4,1.5c2.2,1.8,1.6,6.8,3.6,8.8
		c2,2,7.1,1.4,8.8,3.6c1.8,2.2,0,7,1.5,9.4c1.5,2.4,6.6,2.9,7.8,5.5c1.2,2.6-1.5,6.8-0.6,9.5c0.9,2.7,5.8,4.3,6.4,7.1
		c0.6,2.8-3,6.3-2.7,9.1C154.8,74.7,159.2,77.3,159.2,80.2z"/>
</g>
<g id="Layer_2">
	<path class="st1" d="M151.6,79.6c0,2.6-3.9,5-4.2,7.5c-0.3,2.6,3,5.7,2.4,8.2c-0.6,2.5-4.9,3.9-5.7,6.4c-0.9,2.4,1.6,6.2,0.5,8.6
		c-1.1,2.3-5.7,2.7-7,4.9c-1.4,2.2,0.2,6.5-1.4,8.5c-1.6,2-6.1,1.4-7.9,3.2c-1.8,1.8-1.2,6.3-3.2,7.9c-2,1.6-6.3,0-8.5,1.4
		c-2.2,1.4-2.6,5.9-4.9,7c-2.3,1.1-6.1-1.4-8.6-0.5c-2.4,0.8-3.8,5.2-6.4,5.7c-2.5,0.6-5.6-2.7-8.2-2.4c-2.5,0.3-4.9,4.2-7.5,4.2
		c-2.6,0-5-3.9-7.5-4.2c-2.6-0.3-5.7,3-8.2,2.4c-2.5-0.6-3.9-4.9-6.4-5.7c-2.4-0.9-6.3,1.6-8.6,0.5c-2.3-1.1-2.7-5.7-4.9-7
		c-2.2-1.4-6.5,0.2-8.5-1.4c-2-1.6-1.4-6.1-3.2-7.9c-1.8-1.8-6.3-1.2-7.9-3.2c-1.6-2,0-6.3-1.4-8.5c-1.4-2.2-5.9-2.6-7-4.9
		c-1.1-2.3,1.4-6.1,0.5-8.6c-0.8-2.4-5.2-3.8-5.7-6.4c-0.6-2.5,2.7-5.6,2.4-8.2c-0.3-2.5-4.2-4.9-4.2-7.5c0-2.6,3.9-5,4.2-7.5
		c0.3-2.6-3-5.7-2.4-8.2c0.6-2.5,4.9-3.9,5.7-6.4c0.9-2.4-1.6-6.3-0.5-8.6c1.1-2.3,5.7-2.7,7-4.9c1.4-2.2-0.2-6.5,1.4-8.5
		c1.6-2,6.1-1.4,7.9-3.2c1.8-1.8,1.2-6.3,3.2-7.9c2-1.6,6.3,0,8.5-1.4c2.2-1.4,2.6-5.9,4.9-7c2.3-1.1,6.1,1.4,8.6,0.5
		c2.4-0.8,3.8-5.2,6.4-5.7c2.5-0.6,5.6,2.7,8.2,2.4c2.5-0.3,4.9-4.2,7.5-4.2c2.6,0,5,3.9,7.5,4.2c2.6,0.3,5.7-3,8.2-2.4
		c2.5,0.6,3.9,4.9,6.4,5.7c2.4,0.9,6.3-1.6,8.6-0.5c2.3,1.1,2.7,5.7,4.9,7c2.2,1.4,6.5-0.2,8.5,1.4c2,1.6,1.4,6.1,3.2,7.9
		c1.8,1.8,6.3,1.2,7.9,3.2c1.6,2,0,6.3,1.4,8.5c1.4,2.2,5.9,2.6,7,4.9c1.1,2.3-1.4,6.1-0.5,8.6c0.8,2.4,5.2,3.8,5.7,6.4
		c0.6,2.5-2.7,5.6-2.4,8.2C147.7,74.7,151.6,77.1,151.6,79.6z"/>
</g>
<g id="Layer_3">
	<g>
		<g>
			<path class="st2" d="M49.5,31.3c-1.1,0-1.9,0.2-2.3,0.6c-0.5,0.4-0.7,1.2-0.7,2.3v21c0,1.1,0.2,1.9,0.7,2.3
				c0.5,0.4,1.2,0.7,2.3,0.7c1.1,0,1.9-0.2,2.3-0.6s0.6-1.2,0.6-2.3v-5.8H51v6.1c0,1.3-0.5,2-1.5,2c-1,0-1.5-0.7-1.5-2V34.1
				c0-1.3,0.5-2,1.5-2c1,0,1.5,0.7,1.5,2v5.5h1.5v-5.3c0-1.1-0.2-1.9-0.7-2.3C51.4,31.5,50.6,31.3,49.5,31.3z M59.7,57h-3V31.6h-1.5
				V58h4.5V57z M66.1,57h-3V44.6h2.6v-1h-2.6V32.5h2.8v-1h-4.4V58h4.5V57z M74.1,58V31.6h-3c-1.1,0-1.9,0.2-2.4,0.6
				c-0.4,0.4-0.7,1.2-0.7,2.3V58h1.5V44.6h2.9V58H74.1z M69.7,43.6v-9.3c0-1.3,0.5-1.9,1.5-1.9h1.4v11.2H69.7z M78.7,44.4h1.1
				c0.8,0,1.3,0.1,1.5,0.4c0.2,0.3,0.4,0.8,0.4,1.5V58h1.5V47c0-0.9-0.1-1.5-0.2-1.9c-0.2-0.6-0.7-0.9-1.4-1.1
				c0.7-0.2,1.2-0.5,1.4-1.1c0.2-0.4,0.2-1,0.2-1.9v-6.6c0-1.2-0.2-2-0.7-2.3c-0.5-0.4-1.3-0.6-2.5-0.6h-2.8V58h1.5V44.4z
				 M78.7,32.3h1.1c0.8,0,1.3,0.1,1.5,0.4c0.2,0.3,0.4,0.8,0.4,1.5v7.4c0,0.7-0.1,1.2-0.4,1.5c-0.3,0.3-0.8,0.4-1.5,0.4h-1.1V32.3z
				 M86.9,32.2c-0.4,0.4-0.7,1.2-0.7,2.3V58h1.5V44.6h2.9V58h1.5V31.6h-3C88.1,31.6,87.3,31.8,86.9,32.2z M90.7,32.4v11.2h-2.9v-9.3
				c0-1.3,0.5-1.9,1.5-1.9H90.7z M96.7,36.3l2.1,6.7c0,0.1,0.2,0.6,0.6,1.7c0.2,0.6,0.4,1.2,0.4,1.7V58h1.4V31.6h-1.4v11.8
				l-3.3-11.8h-1.2V58h1.4V36.3z M110.3,55.3v-5.8h-1.5v6.1c0,1.3-0.5,2-1.5,2c-1,0-1.5-0.7-1.5-2V34.1c0-1.3,0.5-2,1.5-2
				c1,0,1.5,0.7,1.5,2v5.5h1.5v-5.3c0-1.1-0.2-1.9-0.7-2.3c-0.4-0.4-1.2-0.6-2.3-0.6c-1.1,0-1.9,0.2-2.3,0.6
				c-0.5,0.4-0.7,1.2-0.7,2.3v21c0,1.1,0.2,1.9,0.7,2.3c0.5,0.4,1.2,0.7,2.3,0.7c1.1,0,1.9-0.2,2.3-0.6S110.3,56.4,110.3,55.3z
				 M114.5,57V44.6h2.6v-1h-2.6V32.5h2.8v-1H113V58h4.5v-1H114.5z M62.3,85.8c-1.5,0-2.6,0.1-3.5,0.3V71.2h8.8v-2.4H56.2V89
				c1.3-0.8,3.1-1.2,5.3-1.2c1.8,0,2.9,0.3,3.4,1c0.5,0.7,0.7,1.9,0.7,3.7v30.1c0,3-1.1,4.4-3.3,4.4c-2.2,0-3.3-1.5-3.3-4.4v-18.4
				h-3.5V122c0,2.5,0.5,4.2,1.5,5.2c1,1,2.8,1.5,5.3,1.5c2.5,0,4.2-0.5,5.2-1.5c1-1,1.5-2.7,1.5-5.2V92.5c0-2.5-0.5-4.3-1.5-5.2
				C66.6,86.3,64.8,85.8,62.3,85.8z M80.6,68.2c-2.5,0-4.2,0.5-5.3,1.5c-1,1-1.5,2.7-1.5,5.2V122c0,2.5,0.5,4.2,1.5,5.2
				c1,1,2.8,1.5,5.3,1.5c2.5,0,4.3-0.5,5.3-1.5c1-1,1.5-2.7,1.5-5.2V74.8c0-2.5-0.5-4.2-1.5-5.2C84.8,68.7,83.1,68.2,80.6,68.2z
				 M83.8,122.6c0,3-1.1,4.4-3.3,4.4c-2.2,0-3.3-1.5-3.3-4.4V74.3c0-3,1.1-4.5,3.3-4.5c2.2,0,3.3,1.5,3.3,4.5V122.6z M94.9,95.4
				l10.2-27h-1.2l-10.2,27H94.9z M95.1,83.8c1.4,0,2.1-0.6,2.1-1.8V70.2c0-0.7-0.2-1.2-0.6-1.5c-0.3-0.2-0.8-0.3-1.5-0.3
				c-1.4,0-2.1,0.6-2.1,1.8v11.9C93,83.2,93.7,83.8,95.1,83.8z M94.2,70.2c0-0.6,0.3-1,0.9-1c0.6,0,0.9,0.4,0.9,1.1v12.1
				c0,0.5-0.3,0.7-0.9,0.7c-0.6,0-0.9-0.3-0.9-1V70.2z M103.7,95.4c1.4,0,2.1-0.6,2.1-1.8v-12c0-0.7-0.2-1.2-0.6-1.5
				c-0.3-0.2-0.8-0.3-1.5-0.3c-1.4,0-2.1,0.6-2.1,1.8v12C101.6,94.8,102.3,95.4,103.7,95.4z M102.9,81.7c0-0.7,0.3-1,0.9-1
				c0.6,0,0.9,0.4,0.9,1.1v12c0,0.5-0.3,0.8-0.9,0.8c-0.6,0-0.9-0.4-0.9-1.1V81.7z M96.4,101.4c-1.1,0-1.9,0.2-2.3,0.6
				c-0.5,0.4-0.7,1.2-0.7,2.3v21c0,1.1,0.2,1.9,0.7,2.3c0.5,0.4,1.2,0.7,2.3,0.7c1.1,0,1.9-0.2,2.3-0.6c0.4-0.4,0.6-1.2,0.6-2.3v-21
				c0-1.1-0.2-1.9-0.7-2.3C98.3,101.6,97.5,101.4,96.4,101.4z M97.8,125.7c0,1.3-0.5,2-1.5,2c-1,0-1.5-0.7-1.5-2v-21.5
				c0-1.3,0.5-2,1.5-2c1,0,1.5,0.7,1.5,2V125.7z M102,128.1h1.6v-13.5h2.6v-1h-2.6v-11.1h2.7v-1H102V128.1z M108,128.1h1.6v-13.5
				h2.6v-1h-2.6v-11.1h2.7v-1H108V128.1z"/>
		</g>
	</g>
</g>
</svg>
