<?xml version="1.0" encoding="utf-8"?>
<!-- Generator: Adobe Illustrator 19.2.1, SVG Export Plug-In . SVG Version: 6.00 Build 0)  -->
<svg version="1.1" id="Layer_1" xmlns="http://www.w3.org/2000/svg" xmlns:xlink="http://www.w3.org/1999/xlink" x="0px" y="0px"
	 viewBox="0 0 76.5 16.5" style="enable-background:new 0 0 76.5 16.5;" xml:space="preserve">
<style type="text/css">
	.st0{fill-rule:evenodd;clip-rule:evenodd;fill:#6B6B6B;}
	.st1{fill:#6B6B6B;}
</style>
<path class="st0" d="M7.6,0C3.4,0,0,3.4,0,7.6c0,3.1,1.9,5.7,4.6,6.9c0-0.5,0-1.2,0.1-1.7c0.1-0.6,1-4.1,1-4.1S5.4,8.1,5.4,7.4
	c0-1.1,0.7-2,1.5-2c0.7,0,1,0.5,1,1.1c0,0.7-0.4,1.7-0.7,2.7c-0.2,0.8,0.4,1.5,1.2,1.5c1.4,0,2.4-1.8,2.4-4c0-1.7-1.1-2.9-3.2-2.9
	C5.4,3.8,4,5.5,4,7.4c0,0.7,0.2,1.1,0.5,1.5c0.1,0.2,0.2,0.2,0.1,0.4c0,0.1-0.1,0.5-0.2,0.6c-0.1,0.2-0.2,0.3-0.4,0.2
	C3,9.7,2.5,8.6,2.5,7.3c0-2.1,1.8-4.7,5.5-4.7c2.9,0,4.8,2.1,4.8,4.3c0,3-1.7,5.2-4.1,5.2c-0.8,0-1.6-0.4-1.9-0.9
	c0,0-0.4,1.7-0.5,2.1c-0.2,0.6-0.5,1.2-0.8,1.6c0.7,0.2,1.4,0.3,2.2,0.3c4.2,0,7.6-3.4,7.6-7.6C15.3,3.4,11.9,0,7.6,0z"/>
<path class="st1" d="M46.6,2.6c-0.7,0.3-1.4,0.5-2.1,0.6c0.7-0.4,1.3-1.2,1.6-2c-0.7,0.4-1.5,0.7-2.3,0.9c-0.7-0.7-1.6-1.1-2.7-1.1
	c-2,0-3.6,1.6-3.6,3.6c0,0.3,0,0.6,0.1,0.8c-3-0.2-5.7-1.6-7.5-3.8c-0.3,0.5-0.5,1.2-0.5,1.8c0,1.3,0.6,2.4,1.6,3
	c-0.6,0-1.2-0.2-1.6-0.5c0,0,0,0,0,0c0,1.8,1.3,3.2,2.9,3.5c-0.3,0.1-0.6,0.1-1,0.1c-0.2,0-0.5,0-0.7-0.1c0.5,1.4,1.8,2.5,3.4,2.5
	c-1.2,1-2.8,1.5-4.5,1.5c-0.3,0-0.6,0-0.9-0.1c1.6,1,3.5,1.6,5.6,1.6c6.7,0,10.3-5.5,10.3-10.3c0-0.2,0-0.3,0-0.5
	C45.5,4,46.1,3.3,46.6,2.6z"/>
<path class="st1" d="M59.6,5.9h1.6V5.2V4.5V4.4c0-0.6,0-1.6,0.5-2.2c0.5-0.6,1.2-1.1,2.4-1.1c2,0,2.8,0.3,2.8,0.3l-0.4,2.2
	c0,0-0.6-0.2-1.3-0.2c-0.6,0-1.1,0.2-1.1,0.8v0.2v0.8v0.7h2.5L66.4,8h-2.3v7.5h-2.9V8h-1.6V5.9z"/>
</svg>
