<?xml version="1.0" encoding="utf-8"?>
<!-- Generator: Adobe Illustrator 19.2.1, SVG Export Plug-In . SVG Version: 6.00 Build 0)  -->
<svg version="1.1" id="Layer_1" xmlns="http://www.w3.org/2000/svg" xmlns:xlink="http://www.w3.org/1999/xlink" x="0px" y="0px"
	 viewBox="0 0 100 100" style="enable-background:new 0 0 100 100;" xml:space="preserve">
<style type="text/css">
	.st0{fill-rule:evenodd;clip-rule:evenodd;fill:#FFFFFF;}
</style>
<g>
	<g>
		<path class="st0" d="M10.1,18.4h80.4c4.9,0,8.9-4,8.9-8.9c0-4.9-4-8.9-8.9-8.9H10.1c-4.9,0-8.9,4-8.9,8.9
			C1.2,14.4,5.2,18.4,10.1,18.4z M90.5,36.2H10.1c-4.9,0-8.9,4-8.9,8.9c0,4.9,4,8.9,8.9,8.9h80.4c4.9,0,8.9-4,8.9-8.9
			C99.4,40.2,95.4,36.2,90.5,36.2z M90.5,72H10.1c-4.9,0-8.9,4-8.9,8.9c0,4.9,4,8.9,8.9,8.9h80.4c4.9,0,8.9-4,8.9-8.9
			C99.4,76,95.4,72,90.5,72z"/>
	</g>
</g>
</svg>
