<?xml version="1.0" encoding="utf-8"?>
<!-- Generator: Adobe Illustrator 19.2.1, SVG Export Plug-In . SVG Version: 6.00 Build 0)  -->
<svg version="1.1" id="All_glyphs" xmlns="http://www.w3.org/2000/svg" xmlns:xlink="http://www.w3.org/1999/xlink" x="0px" y="0px"
	 viewBox="0 0 451.4 447.3" style="enable-background:new 0 0 451.4 447.3;" xml:space="preserve">
<style type="text/css">
	.st0{fill:#666666;}
</style>
<g>
	<path class="st0" d="M351.7,322c-57.3-20.9-75.6-38.5-75.6-76.2c0-22.6,17.5-15.2,25.2-56.7c3.2-17.2,18.6-0.3,21.6-39.5
		c0-15.6-8.4-19.5-8.4-19.5s4.3-23.1,6-41c2.1-22.2-12.8-79.5-92.3-79.5S133.8,67,135.9,89.2c1.7,17.8,6,41,6,41s-8.4,3.9-8.4,19.5
		c2.9,39.2,18.4,22.3,21.6,39.5c7.7,41.4,25.2,34,25.2,56.7c0,37.7-18.3,55.3-75.6,76.2c-57.4,20.9-94.8,42.3-94.8,56.8
		c0,14.5,0,48.9,0,48.9h218.3h218.3c0,0,0-34.4,0-48.9C446.5,364.3,409.2,342.9,351.7,322z"/>
</g>
</svg>
