<?xml version="1.0" encoding="utf-8"?>
<!-- Generator: Adobe Illustrator 19.2.1, SVG Export Plug-In . SVG Version: 6.00 Build 0)  -->
<svg version="1.1" id="Layer_1" xmlns="http://www.w3.org/2000/svg" xmlns:xlink="http://www.w3.org/1999/xlink" x="0px" y="0px"
	 viewBox="0 0 26 26" style="enable-background:new 0 0 26 26;" xml:space="preserve">
<style type="text/css">
	.st0{fill-rule:evenodd;clip-rule:evenodd;fill:#FFFFFF;}
	.st1{fill-rule:evenodd;clip-rule:evenodd;fill:none;}
</style>
<path class="st0" d="M23.1,18.1c3.9-3.9,3.9-10.1,0-14s-10.1-3.9-14,0C5.9,7.3,5.4,12.2,7.5,16l-5.7,5.7c-1,1-1,2.6,0,3.6l0,0
	c1,1,2.6,1,3.7,0l5.7-5.7C15,21.8,19.9,21.3,23.1,18.1z M11.4,15.8c-2.6-2.6-2.6-6.8,0-9.4c2.6-2.6,6.8-2.6,9.4,0
	c2.6,2.6,2.6,6.8,0,9.4C18.2,18.4,14,18.4,11.4,15.8z"/>
<rect id="_x3C_Slice_x3E_" x="-32" y="-13" class="st1" width="68" height="67"/>
</svg>
