<?xml version="1.0" encoding="utf-8"?>
<!-- Generator: Adobe Illustrator 19.2.1, SVG Export Plug-In . SVG Version: 6.00 Build 0)  -->
<svg version="1.1" id="Layer_1" xmlns="http://www.w3.org/2000/svg" xmlns:xlink="http://www.w3.org/1999/xlink" x="0px" y="0px"
	 viewBox="0 0 843.8 800" style="enable-background:new 0 0 843.8 800;" xml:space="preserve">
<style type="text/css">
	.st0{display:none;fill:none;stroke:#707070;stroke-width:12.338;stroke-miterlimit:10;}
	.st1{display:none;fill:#999999;}
	.st2{display:none;fill:#969696;}
	.st3{display:none;fill:#D3D3D3;}
	.st4{fill:#B3B3B3;}
	.st5{fill:none;stroke:#FFFFFF;stroke-width:12.6223;stroke-miterlimit:10;}
	.st6{fill:none;stroke:#B3B3B3;stroke-width:12;stroke-miterlimit:10;}
</style>
<path class="st0" d="M683.3,463v-23.6c0-27.3-22.1-49.4-49.4-49.4c-27.3,0-49.4,22.1-49.4,49.4V463"/>
<polygon class="st1" points="756,624 497,624 527,441 726,441 "/>
<polygon class="st2" points="710,455 511,455 527,441 726,441 "/>
<polygon class="st3" points="756,624 740,638 710,455 726,441 "/>
<polygon class="st4" points="825.8,777 15.8,777 109.6,205 732,205 "/>
<path class="st5" d="M514.4,359.5c-38.6,0-72.8,18.4-94.6,46.9c-21.8-28.5-56-46.9-94.6-46.9c-65.8,0-119.2,53.3-119.2,119.1
	c0,65.8,53.4,119.1,119.2,119.1c38.6,0,72.8-18.4,94.6-46.9c21.8,28.5,56,46.9,94.6,46.9c65.8,0,119.2-53.3,119.2-119.1
	C633.6,412.8,580.2,359.5,514.4,359.5z"/>
<path class="st6" d="M570.2,229.9v-71.6C570.2,75.2,502.8,8,419.8,8S269.4,75.2,269.4,158.2v71.6"/>
</svg>
