<?xml version="1.0" encoding="utf-8"?>
<!-- Generator: Adobe Illustrator 19.2.1, SVG Export Plug-In . SVG Version: 6.00 Build 0)  -->
<svg version="1.1" id="Capa_1" xmlns="http://www.w3.org/2000/svg" xmlns:xlink="http://www.w3.org/1999/xlink" x="0px" y="0px"
	 viewBox="0 0 461 55" style="enable-background:new 0 0 461 55;" xml:space="preserve">
<style type="text/css">
	.st0{fill:#FFFFFF;}
</style>
<path class="st0" d="M66,7c-2.4,1.1-5.1,1.8-7.8,2.1c2.8-1.7,5-4.4,6-7.5c-2.6,1.6-5.6,2.7-8.7,3.3c-2.5-2.7-6-4.3-10-4.3
	c-7.5,0-13.6,6.1-13.6,13.6c0,1.1,0.1,2.1,0.4,3.1c-11.3-0.6-21.4-6-28.1-14.3c-1.2,2-1.8,4.4-1.8,6.9c0,4.7,2.4,8.9,6.1,11.4
	c-2.2-0.1-4.3-0.7-6.2-1.7v0.2c0,6.6,4.7,12.1,11,13.4c-1.1,0.3-2.4,0.5-3.6,0.5c-0.9,0-1.7-0.1-2.6-0.2c1.7,5.4,6.8,9.4,12.7,9.5
	c-4.7,3.7-10.6,5.8-17,5.8c-1.1,0-2.2-0.1-3.3-0.2c6,3.9,13.2,6.1,20.9,6.1c25.1,0,38.8-20.8,38.8-38.8c0-0.6,0-1.2,0-1.8
	C61.8,12.1,64.1,9.7,66,7"/>
<path class="st0" d="M88.3,18.3H94v-5.5c0-2.4,0.1-6.2,1.8-8.6c1.9-2.5,4.4-4.2,8.9-4.2c7.2,0,10.2,1,10.2,1l-1.4,8.5
	c0,0-2.4-0.7-4.6-0.7c-2.2,0-4.2,0.8-4.2,3v6.4h9.1l-0.6,8.3h-8.5v28.7H94V26.5h-5.7V18.3z"/>
<path class="st0" d="M167.9,52.1c-6.5,0-11.1-4.1-11.1-9c0-4.8,5.8-8.8,12.2-8.7c1.5,0,2.9,0.3,4.2,0.7c3.5,2.4,6,3.8,6.7,6.6
	c0.1,0.6,0.2,1.1,0.2,1.7C180.2,48.2,177,52.1,167.9,52.1 M169.6,23.3c-4.3-0.1-8.5-4.8-9.2-10.5c-0.7-5.7,2.2-10,6.5-9.9
	c4.3,0.1,8.5,4.7,9.2,10.4C176.9,18.9,174,23.4,169.6,23.3 M178.6,31.7c-1.5-1.1-4.4-3.7-4.4-5.2c0-1.8,0.5-2.7,3.2-4.8
	c2.8-2.2,4.7-5.2,4.7-8.8c0-4.2-1.9-8.4-5.4-9.7h5.3l3.8-2.7H169c-7.5,0-14.6,5.7-14.6,12.3c0,6.8,5.1,12.2,12.8,12.2
	c0.5,0,1.1,0,1.6,0c-0.5,1-0.9,2-0.9,3.1c0,1.9,1,3.4,2.3,4.6c-1,0-1.9,0-2.9,0c-9.3,0-16.5,5.9-16.5,12.1c0,6.1,7.9,9.9,17.2,9.9
	c10.6,0,16.5-6,16.5-12.1C184.5,37.8,183.1,34.9,178.6,31.7 M203.1,23.8h-6.5v-6.5h-5.3v6.5h-6.5v5.3h6.5v6.5h5.3v-6.5h6.5V23.8z"/>
<path class="st0" d="M244.7,0.4V14h12.8v8.5h-12.8v13.8c0,3.1,0.2,5.1,0.5,6c0.3,0.9,0.9,1.6,1.9,2.1c1.2,0.7,2.6,1.1,4.1,1.1
	c2.7,0,5.5-0.9,8.2-2.7v8.5c-2.3,1.1-4.4,1.8-6.3,2.3c-1.9,0.4-3.9,0.7-6.1,0.7c-2.5,0-4.7-0.3-6.5-0.9c-1.9-0.6-3.5-1.5-4.9-2.7
	c-1.3-1.2-2.3-2.4-2.8-3.7c-0.5-1.3-0.8-3.2-0.8-5.7V22.5h-6v-7.6c2.1-0.7,3.9-1.7,5.5-3c1.5-1.3,2.7-2.8,3.6-4.6
	c0.9-1.8,1.5-4.1,1.9-6.9H244.7z"/>
<path class="st0" d="M348.8,13c-0.3,6.1-4.5,14.4-12.7,24.9c-8.5,11-15.7,16.5-21.6,16.5c-3.6,0-6.7-3.4-9.2-10.1
	c-1.7-6.2-3.4-12.3-5-18.5c-1.9-6.7-3.9-10.1-6-10.1c-0.5,0-2.1,1-4.9,2.9l-2.9-3.8c3.1-2.7,6.1-5.4,9.1-8.1
	c4.1-3.6,7.2-5.4,9.2-5.6c4.8-0.5,7.8,2.8,9,9.9c1.2,7.7,2,12.4,2.5,14.3c1.4,6.3,2.9,9.5,4.6,9.5c1.3,0,3.3-2,5.9-6.2
	c2.6-4.1,4-7.2,4.2-9.4c0.4-3.5-1-5.3-4.2-5.3c-1.5,0-3,0.3-4.6,1c3.1-10,9-14.8,17.6-14.6C346.2,0.7,349.2,4.9,348.8,13z"/>
<path class="st0" d="M392.8,0.3c-15.2,0-27.5,12.3-27.5,27.5c0,11.3,6.8,20.9,16.5,25.2c-0.1-1.9,0-4.2,0.5-6.3
	c0.5-2.2,3.5-15,3.5-15s-0.9-1.8-0.9-4.4c0-4.1,2.4-7.1,5.3-7.1c2.5,0,3.7,1.9,3.7,4.1c0,2.5-1.6,6.3-2.4,9.8
	c-0.7,2.9,1.5,5.3,4.3,5.3c5.2,0,8.7-6.7,8.7-14.6c0-6-4.1-10.5-11.4-10.5c-8.3,0-13.5,6.2-13.5,13.2c0,2.4,0.7,4.1,1.8,5.4
	c0.5,0.6,0.6,0.8,0.4,1.5c-0.1,0.5-0.4,1.7-0.6,2.2c-0.2,0.7-0.7,0.9-1.4,0.7c-3.8-1.6-5.6-5.8-5.6-10.5c0-7.8,6.6-17.2,19.7-17.2
	c10.5,0,17.4,7.6,17.4,15.8c0,10.8-6,18.8-14.8,18.8c-3,0-5.8-1.6-6.7-3.4c0,0-1.6,6.3-1.9,7.6c-0.6,2.1-1.7,4.2-2.8,5.9
	c2.5,0.7,5.1,1.1,7.8,1.1c15.2,0,27.5-12.3,27.5-27.5C420.3,12.6,408,0.3,392.8,0.3"/>
</svg>
